<svg xmlns="http://www.w3.org/2000/svg" xmlns:xlink="http://www.w3.org/1999/xlink" width="500" zoomAndPan="magnify" viewBox="0 0 375 374.999991" height="500" preserveAspectRatio="xMidYMid meet" version="1.0"><defs><g/></defs><g fill="#ffffff" fill-opacity="1"><g transform="translate(240.670957, 294.180918)"><g><path d="M 78.03125 -94.296875 L 22.953125 -27.734375 C 19.585938 -23.660156 15.515625 -20.757812 10.734375 -19.03125 C 5.953125 -17.3125 1.054688 -16.851562 -3.953125 -17.65625 C -8.972656 -18.457031 -13.519531 -20.539062 -17.59375 -23.90625 L -39.78125 -42.265625 L -21.421875 -64.453125 L 0.765625 -46.09375 L 55.84375 -112.65625 L -10.71875 -167.734375 L -47.4375 -123.359375 L -69.609375 -141.71875 L -14.53125 -208.28125 L 74.203125 -134.84375 C 78.171875 -131.550781 81.019531 -127.515625 82.75 -122.734375 C 84.476562 -117.953125 84.984375 -113.054688 84.265625 -108.046875 C 83.546875 -103.035156 81.46875 -98.453125 78.03125 -94.296875 Z M 78.03125 -94.296875 "/></g></g></g><g fill="#ffffff" fill-opacity="1"><g transform="translate(127.836026, 83.653232)"><g><path d="M -77.078125 90.640625 L -22.671875 26.65625 C -19.347656 22.75 -15.347656 19.984375 -10.671875 18.359375 C -6.003906 16.742188 -1.238281 16.359375 3.625 17.203125 C 8.5 18.046875 12.890625 20.132812 16.796875 23.46875 L 38.125 41.59375 L 19.984375 62.921875 L -1.34375 44.796875 L -55.75 108.78125 L 8.234375 163.1875 L 44.515625 120.53125 L 65.828125 138.65625 L 11.421875 202.640625 L -73.875 130.109375 C -77.695312 126.859375 -80.414062 122.894531 -82.03125 118.21875 C -83.644531 113.550781 -84.070312 108.785156 -83.3125 103.921875 C -82.550781 99.066406 -80.472656 94.640625 -77.078125 90.640625 Z M -77.078125 90.640625 "/></g></g></g></svg>